<svg width="615" height="528" viewBox="0 0 615 528" fill="none" xmlns="http://www.w3.org/2000/svg">
<g clip-path="url(#clip0_1166_286)">
<path d="M249.512 219.07C215.387 257.334 169.356 261.898 150.606 259.397C130.293 266.587 77.5741 260.335 29.1992 177.806C-31.2695 74.644 19.3555 145.45 29.1992 85.4291C39.043 25.4078 126.699 59.1698 199.824 80.7399C272.949 102.31 329.668 97.6209 346.074 76.9886C362.481 56.3563 482.012 50.2604 534.043 115.44C586.074 180.619 472.637 295.035 482.012 322.232C491.387 349.429 515.293 374.282 511.074 416.015C506.856 457.749 474.981 460.093 472.637 466.658C470.762 471.91 440.293 509.486 425.293 527.617L296.387 446.964C306.699 424.143 335.012 371.468 365.762 343.333C404.199 308.164 398.106 248.143 383.106 203.596C368.106 159.049 292.168 171.241 249.512 219.07Z" fill="url(#paint0_linear_1166_286)"/>
<path d="M259.824 207.816C225.699 246.08 179.668 250.644 160.918 248.143C140.605 255.334 87.8866 249.081 39.5117 166.552C-20.957 63.3901 29.668 134.196 39.5117 74.1752C49.3555 14.1539 137.012 47.9159 210.137 69.486C283.262 91.0562 339.981 86.367 356.387 65.7347C372.793 45.1024 492.324 39.0064 544.356 104.186C596.387 169.365 482.949 283.781 492.324 310.978C501.699 338.175 525.606 363.028 521.387 404.761C517.168 446.495 485.293 448.839 482.949 455.404C481.074 460.656 450.606 498.232 435.606 516.363L306.699 435.71C317.012 412.89 345.324 360.214 376.074 332.079C414.512 296.911 408.418 236.889 393.418 192.342C378.418 147.795 302.481 159.987 259.824 207.816Z" stroke="#00FFB2"/>
<path d="M278.574 194.687C244.449 232.95 198.418 237.515 179.668 235.014C159.355 242.204 106.637 235.951 58.2618 153.422C-2.20704 50.2605 48.418 121.067 58.2618 61.0455C68.1055 1.02424 155.762 34.7862 228.887 56.3564C302.012 77.9265 358.731 73.2374 375.137 52.605C391.543 31.9727 511.074 25.8768 563.106 91.0562C615.137 156.236 501.699 270.651 511.074 297.848C520.449 325.046 544.356 349.898 540.137 391.632C535.918 433.365 504.043 435.71 501.699 442.275C499.824 447.527 469.356 485.103 454.356 503.234L325.449 422.58C335.762 399.76 364.074 347.085 394.824 318.95C433.262 283.781 427.168 223.76 412.168 179.212C397.168 134.665 321.231 146.857 278.574 194.687Z" stroke="#00FFB2"/>
<path d="M297.324 181.557C263.199 219.82 217.168 224.385 198.418 221.884C178.105 229.074 125.387 222.822 77.0117 140.292C16.543 37.1306 67.168 107.937 77.0117 47.9157C86.8555 -12.1057 174.512 21.6563 247.637 43.2265C320.762 64.7967 377.481 60.1075 393.887 39.4752C410.293 18.8428 529.824 12.7469 581.856 77.9263C633.887 143.106 520.449 257.521 529.824 284.718C539.199 311.916 563.106 336.768 558.887 378.502C554.668 420.235 522.793 422.58 520.449 429.145C518.574 434.397 488.106 471.973 473.106 490.104L344.199 409.45C354.512 386.63 382.824 333.955 413.574 305.82C452.012 270.651 445.918 210.63 430.918 166.083C415.918 121.536 339.981 133.727 297.324 181.557Z" stroke="#00FFB2"/>
<path d="M316.074 168.427C281.949 206.691 235.918 211.255 217.168 208.754C196.855 215.944 144.137 209.692 95.7619 127.163C35.2931 24.0009 85.9181 94.8073 95.7619 34.786C105.606 -25.2353 193.262 8.5267 266.387 30.0969C339.512 51.667 396.231 46.9778 412.637 26.3455C429.043 5.71319 548.574 -0.382722 600.606 64.7967C652.637 129.976 539.199 244.392 548.574 271.589C557.949 298.786 581.856 323.639 577.637 365.372C573.418 407.106 541.543 409.45 539.199 416.015C537.324 421.267 506.856 458.843 491.856 476.974L362.949 396.321C373.262 373.5 401.574 320.825 432.324 292.69C470.762 257.521 464.668 197.5 449.668 152.953C434.668 108.406 358.731 120.598 316.074 168.427Z" stroke="#00FFB2"/>
</g>
<defs>
<linearGradient id="paint0_linear_1166_286" x1="273.879" y1="51.5808" x2="273.879" y2="527.617" gradientUnits="userSpaceOnUse">
<stop stop-color="#00FFB3"/>
<stop offset="1" stop-color="#48FF60"/>
</linearGradient>
<clipPath id="clip0_1166_286">
<rect width="615" height="528" fill="white"/>
</clipPath>
</defs>
</svg>
